# xmcd
#
# Track frame offsets:
#	150
#	62785
#	102372
#	119060
#	168462
#	203952
#	270037
#
# Disc length: 4187 seconds
#
# Revision: 2
# Processed by: cddbd v1.5.2PL0 Copyright (c) Steve Scherf et al.
# Submitted via: audiograbber 1.82.02
#
DISCID=61105907
DTITLE=Von Freeman - Live at the Dakota
DYEAR=2001
DGENRE=Jazz
TTITLE0=Bye Bye Blackbird
TTITLE1=Crazy She Calls Me
TTITLE2=My Little Brown Book
TTITLE3=Caravan
TTITLE4=Do Nothin' Till You Hear From Me
TTITLE5=Footprints
TTITLE6=Blues for Sunnyland
EXTD=Recorded at Dakota Bar and Grill, St Paul MN 04-30 and 05-01 1996
EXTT0=Recorded at Dakota Bar and Grill, St Paul MN 04-30 and 05-01 1996
EXTT1=Recorded at Dakota Bar and Grill, St Paul MN 04-30 and 05-01 1996
EXTT2=Recorded at Dakota Bar and Grill, St Paul MN 04-30 and 05-01 1996
EXTT3=Recorded at Dakota Bar and Grill, St Paul MN 04-30 and 05-01 1996
EXTT4=Recorded at Dakota Bar and Grill, St Paul MN 04-30 and 05-01 1996
EXTT5=Recorded at Dakota Bar and Grill, St Paul MN 04-30 and 05-01 1996
EXTT6=Recorded at Dakota Bar and Grill, St Paul MN 04-30 and 05-01 1996
PLAYORDER=
